<svg width="961" height="121" viewBox="0 0 961 121" fill="none" xmlns="http://www.w3.org/2000/svg">
<path fill-rule="evenodd" clip-rule="evenodd" d="M43.1009 20.6C34.8272 13.6725 21.1124 11.6604 10.9219 18.2092C0.731409 24.7579 -0.589554 35.5254 7.55926 43.0374C14.3345 49.2829 34.7715 62.3845 41.4691 66.6241C42.2182 67.0984 42.5929 67.3356 43.0279 67.4253C43.4072 67.5037 43.8215 67.4989 44.1994 67.4118C44.6322 67.312 45.0009 67.0663 45.7393 66.5748C52.3371 62.1817 72.4658 48.6115 79.0952 42.2112C87.0682 34.513 86.299 18.027 75.7843 11.7851C65.2696 5.54313 51.2123 13.4832 43.1009 20.6Z" fill="#02AD3B" fill-opacity="0.81" stroke="#02AD3B" stroke-width="3" stroke-linecap="round" stroke-linejoin="round"/>
<path d="M36.8542 77.8532L42.8014 67.2719L50.3732 75.5945L36.8542 77.8532Z" fill="#02AD3B" fill-opacity="0.8" stroke="#02AD3B"/>
<path d="M46.7823 119.898C46.7823 119.898 52.3855 96.3495 46.4988 95.3493C40.612 94.3492 43.5205 68.6794 43.5205 68.6794" stroke="#02AD3B"/>
<path fill-rule="evenodd" clip-rule="evenodd" d="M168.061 19.1567C159.787 12.2292 146.072 10.2171 135.882 16.7659C125.691 23.3146 124.37 34.0821 132.519 41.5941C139.294 47.8396 159.731 60.9412 166.429 65.1808C167.178 65.6551 167.553 65.8923 167.988 65.982C168.367 66.0604 168.781 66.0556 169.159 65.9685C169.592 65.8687 169.961 65.623 170.699 65.1315C177.297 60.7384 197.426 47.1682 204.055 40.7679C212.028 33.0697 211.259 16.5837 200.744 10.3418C190.229 4.09983 176.172 12.0399 168.061 19.1567Z" fill="#9F0790" fill-opacity="0.81" stroke="#9F0790" stroke-width="3" stroke-linecap="round" stroke-linejoin="round"/>
<path d="M161.814 76.4099L167.761 65.8286L175.333 74.1512L161.814 76.4099Z" fill="#9F0790" fill-opacity="0.8" stroke="#9F0790"/>
<path d="M171.742 118.455C171.742 118.455 177.345 94.9062 171.459 93.906C165.572 92.9059 168.48 67.2361 168.48 67.2361" stroke="#9F0790"/>
<path fill-rule="evenodd" clip-rule="evenodd" d="M293.02 17.7134C284.747 10.7859 271.032 8.77384 260.841 15.3226C250.651 21.8713 249.33 32.6388 257.479 40.1508C264.254 46.3963 284.691 59.4979 291.389 63.7376C292.138 64.2118 292.512 64.449 292.947 64.5387C293.327 64.6171 293.741 64.6123 294.119 64.5252C294.552 64.4254 294.92 64.1797 295.659 63.6882C302.257 59.2951 322.385 45.7249 329.015 39.3246C336.988 31.6264 336.218 15.1404 325.704 8.89847C315.189 2.65654 301.132 10.5966 293.02 17.7134Z" fill="#F58A0F" fill-opacity="0.81" stroke="#F58A0F" stroke-width="3" stroke-linecap="round" stroke-linejoin="round"/>
<path d="M286.774 74.9666L292.721 64.3853L300.293 72.7079L286.774 74.9666Z" fill="#F58A0F" fill-opacity="0.8" stroke="#F58A0F"/>
<path d="M296.702 117.011C296.702 117.011 302.305 93.4629 296.418 92.4627C290.531 91.4625 293.44 65.7927 293.44 65.7927" stroke="#F58A0F"/>
<path fill-rule="evenodd" clip-rule="evenodd" d="M417.98 16.27C409.706 9.3425 395.992 7.33048 385.801 13.8792C375.611 20.428 374.29 31.1955 382.438 38.7075C389.214 44.9529 409.651 58.0546 416.348 62.2942C417.097 62.7685 417.472 63.0056 417.907 63.0954C418.286 63.1737 418.701 63.1689 419.079 63.0818C419.511 62.9821 419.88 62.7363 420.618 62.2449C427.216 57.8517 447.345 44.2815 453.974 37.8812C461.947 30.183 461.178 13.697 450.663 7.45511C440.149 1.21318 426.091 9.15325 417.98 16.27Z" fill="#FB72BD" fill-opacity="0.81" stroke="#FB72BD" stroke-width="3" stroke-linecap="round" stroke-linejoin="round"/>
<path d="M411.733 73.5233L417.681 62.942L425.252 71.2646L411.733 73.5233Z" fill="#FB72BD" fill-opacity="0.8" stroke="#FB72BD"/>
<path d="M421.662 115.568C421.662 115.568 427.265 92.0196 421.378 91.0194C415.491 90.0192 418.4 64.3494 418.4 64.3494" stroke="#FB72BD"/>
<path fill-rule="evenodd" clip-rule="evenodd" d="M543.101 17.6C534.827 10.6725 521.112 8.66044 510.922 15.2092C500.731 21.7579 499.41 32.5254 507.559 40.0374C514.334 46.2829 534.772 59.3845 541.469 63.6241C542.218 64.0984 542.593 64.3356 543.028 64.4253C543.407 64.5037 543.822 64.4989 544.199 64.4118C544.632 64.312 545.001 64.0663 545.739 63.5748C552.337 59.1817 572.466 45.6115 579.095 39.2112C587.068 31.513 586.299 15.027 575.784 8.78507C565.27 2.54313 551.212 10.4832 543.101 17.6Z" fill="#C80C67" fill-opacity="0.81" stroke="#C80C67" stroke-width="3" stroke-linecap="round" stroke-linejoin="round"/>
<path d="M536.854 74.8532L542.801 64.2719L550.373 72.5945L536.854 74.8532Z" fill="#C80C67" fill-opacity="0.8" stroke="#C80C67"/>
<path d="M546.782 116.898C546.782 116.898 552.386 93.3495 546.499 92.3493C540.612 91.3491 543.521 65.6793 543.521 65.6793" stroke="#C80C67"/>
<path fill-rule="evenodd" clip-rule="evenodd" d="M668.061 16.1567C659.787 9.22916 646.072 7.21714 635.882 13.7659C625.691 20.3146 624.37 31.0821 632.519 38.5941C639.294 44.8396 659.731 57.9412 666.429 62.1808C667.178 62.6551 667.553 62.8923 667.988 62.982C668.367 63.0604 668.781 63.0556 669.159 62.9685C669.592 62.8687 669.961 62.623 670.699 62.1315C677.297 57.7384 697.426 44.1682 704.055 37.7679C712.028 30.0697 711.259 13.5837 700.744 7.34177C690.229 1.09983 676.172 9.03991 668.061 16.1567Z" fill="#FF0000" fill-opacity="0.81" stroke="#FF0000" stroke-width="3" stroke-linecap="round" stroke-linejoin="round"/>
<path d="M661.814 73.4099L667.761 62.8286L675.333 71.1512L661.814 73.4099Z" fill="#FF0000" fill-opacity="0.8" stroke="#FF0000"/>
<path d="M671.742 115.455C671.742 115.455 677.345 91.9063 671.459 90.9061C665.572 89.9059 668.48 64.2361 668.48 64.2361" stroke="#FF0000"/>
<path fill-rule="evenodd" clip-rule="evenodd" d="M793.02 14.7134C784.747 7.78586 771.032 5.77384 760.841 12.3226C750.651 18.8713 749.33 29.6389 757.479 37.1508C764.254 43.3963 784.691 56.4979 791.389 60.7376C792.138 61.2118 792.512 61.449 792.947 61.5387C793.327 61.6171 793.741 61.6123 794.119 61.5252C794.552 61.4254 794.92 61.1797 795.659 60.6882C802.257 56.2951 822.385 42.7249 829.015 36.3246C836.988 28.6264 836.218 12.1404 825.704 5.89847C815.189 -0.343465 801.132 7.59661 793.02 14.7134Z" fill="#E5ED09" fill-opacity="0.81" stroke="#E5ED09" stroke-width="3" stroke-linecap="round" stroke-linejoin="round"/>
<path d="M786.774 71.9666L792.721 61.3853L800.293 69.7079L786.774 71.9666Z" fill="#E5ED09" fill-opacity="0.8" stroke="#E5ED09"/>
<path d="M796.702 114.011C796.702 114.011 802.305 90.4629 796.418 89.4627C790.531 88.4625 793.44 62.7928 793.44 62.7928" stroke="#E5ED09"/>
<path fill-rule="evenodd" clip-rule="evenodd" d="M917.98 13.27C909.706 6.3425 895.992 4.33048 885.801 10.8792C875.611 17.428 874.29 28.1955 882.438 35.7075C889.214 41.9529 909.651 55.0546 916.348 59.2942C917.097 59.7685 917.472 60.0056 917.907 60.0954C918.286 60.1737 918.701 60.1689 919.079 60.0818C919.511 59.9821 919.88 59.7363 920.618 59.2449C927.216 54.8517 947.345 41.2815 953.974 34.8812C961.947 27.183 961.178 10.697 950.663 4.45511C940.149 -1.78682 926.091 6.15325 917.98 13.27Z" fill="#2600FF" fill-opacity="0.81" stroke="#2600FF" stroke-width="3" stroke-linecap="round" stroke-linejoin="round"/>
<path d="M911.733 70.5232L917.681 59.9419L925.252 68.2646L911.733 70.5232Z" fill="#2600FF" fill-opacity="0.8" stroke="#2600FF"/>
<path d="M921.662 112.568C921.662 112.568 927.265 89.0195 921.378 88.0194C915.491 87.0192 918.4 61.3494 918.4 61.3494" stroke="#2600FF"/>
</svg>
