<svg width="961" height="113" viewBox="0 0 961 113" fill="none" xmlns="http://www.w3.org/2000/svg">
<path fill-rule="evenodd" clip-rule="evenodd" d="M418.101 13.27C409.827 6.3425 396.112 4.33048 385.922 10.8792C375.731 17.428 374.41 28.1955 382.559 35.7075C389.334 41.9529 409.772 55.0546 416.469 59.2942C417.218 59.7685 417.593 60.0056 418.028 60.0954C418.407 60.1737 418.822 60.1689 419.199 60.0818C419.632 59.9821 420.001 59.7363 420.739 59.2449C427.337 54.8517 447.466 41.2815 454.095 34.8812C462.068 27.183 461.299 10.697 450.784 4.45511C440.27 -1.78682 426.212 6.15325 418.101 13.27Z" fill="#02AD3B" fill-opacity="0.81" stroke="#02AD3B" stroke-width="3" stroke-linecap="round" stroke-linejoin="round"/>
<path d="M411.854 70.5232L417.801 59.9419L425.373 68.2646L411.854 70.5232Z" fill="#02AD3B" fill-opacity="0.8" stroke="#02AD3B"/>
<path d="M421.782 112.568C421.782 112.568 427.386 89.0196 421.499 88.0194C415.612 87.0192 418.521 61.3494 418.521 61.3494" stroke="#02AD3B"/>
<path fill-rule="evenodd" clip-rule="evenodd" d="M793.101 13.27C784.827 6.3425 771.112 4.33048 760.922 10.8792C750.731 17.428 749.41 28.1955 757.559 35.7075C764.334 41.9529 784.772 55.0546 791.469 59.2942C792.218 59.7685 792.593 60.0056 793.028 60.0954C793.407 60.1737 793.822 60.1689 794.199 60.0818C794.632 59.9821 795.001 59.7363 795.739 59.2449C802.337 54.8517 822.466 41.2815 829.095 34.8812C837.068 27.183 836.299 10.697 825.784 4.45511C815.27 -1.78682 801.212 6.15325 793.101 13.27Z" fill="#9F0790" fill-opacity="0.81" stroke="#9F0790" stroke-width="3" stroke-linecap="round" stroke-linejoin="round"/>
<path d="M786.854 70.5232L792.801 59.9419L800.373 68.2646L786.854 70.5232Z" fill="#9F0790" fill-opacity="0.8" stroke="#9F0790"/>
<path d="M796.782 112.568C796.782 112.568 802.386 89.0196 796.499 88.0194C790.612 87.0192 793.521 61.3494 793.521 61.3494" stroke="#9F0790"/>
<path fill-rule="evenodd" clip-rule="evenodd" d="M543.101 13.27C534.827 6.3425 521.112 4.33048 510.922 10.8792C500.731 17.428 499.41 28.1955 507.559 35.7075C514.334 41.9529 534.772 55.0546 541.469 59.2942C542.218 59.7685 542.593 60.0056 543.028 60.0954C543.407 60.1737 543.822 60.1689 544.199 60.0818C544.632 59.9821 545.001 59.7363 545.739 59.2449C552.337 54.8517 572.466 41.2815 579.095 34.8812C587.068 27.183 586.299 10.697 575.784 4.45511C565.27 -1.78682 551.212 6.15325 543.101 13.27Z" fill="#F58A0F" fill-opacity="0.81" stroke="#F58A0F" stroke-width="3" stroke-linecap="round" stroke-linejoin="round"/>
<path d="M536.854 70.5232L542.801 59.9419L550.373 68.2645L536.854 70.5232Z" fill="#F58A0F" fill-opacity="0.8" stroke="#F58A0F"/>
<path d="M546.782 112.568C546.782 112.568 552.386 89.0195 546.499 88.0193C540.612 87.0192 543.521 61.3494 543.521 61.3494" stroke="#F58A0F"/>
<path fill-rule="evenodd" clip-rule="evenodd" d="M293.101 13.27C284.827 6.3425 271.112 4.33048 260.922 10.8792C250.731 17.428 249.41 28.1955 257.559 35.7075C264.334 41.9529 284.772 55.0546 291.469 59.2942C292.218 59.7685 292.593 60.0056 293.028 60.0954C293.407 60.1737 293.822 60.1689 294.199 60.0818C294.632 59.9821 295.001 59.7363 295.739 59.2449C302.337 54.8517 322.466 41.2815 329.095 34.8812C337.068 27.183 336.299 10.697 325.784 4.45511C315.27 -1.78682 301.212 6.15325 293.101 13.27Z" fill="#FB72BD" fill-opacity="0.81" stroke="#FB72BD" stroke-width="3" stroke-linecap="round" stroke-linejoin="round"/>
<path d="M286.854 70.5233L292.801 59.942L300.373 68.2646L286.854 70.5233Z" fill="#FB72BD" fill-opacity="0.8" stroke="#FB72BD"/>
<path d="M296.782 112.568C296.782 112.568 302.386 89.0196 296.499 88.0194C290.612 87.0192 293.521 61.3494 293.521 61.3494" stroke="#FB72BD"/>
<path fill-rule="evenodd" clip-rule="evenodd" d="M668.101 13.27C659.827 6.3425 646.112 4.33048 635.922 10.8792C625.731 17.428 624.41 28.1955 632.559 35.7075C639.334 41.9529 659.772 55.0546 666.469 59.2942C667.218 59.7685 667.593 60.0056 668.028 60.0954C668.407 60.1737 668.822 60.1689 669.199 60.0818C669.632 59.9821 670.001 59.7363 670.739 59.2449C677.337 54.8517 697.466 41.2815 704.095 34.8812C712.068 27.183 711.299 10.697 700.784 4.45511C690.27 -1.78682 676.212 6.15325 668.101 13.27Z" fill="#C80C67" fill-opacity="0.81" stroke="#C80C67" stroke-width="3" stroke-linecap="round" stroke-linejoin="round"/>
<path d="M661.854 70.5232L667.801 59.9419L675.373 68.2646L661.854 70.5232Z" fill="#C80C67" fill-opacity="0.8" stroke="#C80C67"/>
<path d="M671.782 112.568C671.782 112.568 677.386 89.0195 671.499 88.0194C665.612 87.0192 668.521 61.3494 668.521 61.3494" stroke="#C80C67"/>
<path fill-rule="evenodd" clip-rule="evenodd" d="M918.101 13.27C909.827 6.3425 896.112 4.33048 885.922 10.8792C875.731 17.428 874.41 28.1955 882.559 35.7075C889.334 41.9529 909.772 55.0546 916.469 59.2942C917.218 59.7685 917.593 60.0056 918.028 60.0954C918.407 60.1737 918.822 60.1689 919.199 60.0818C919.632 59.9821 920.001 59.7363 920.739 59.2449C927.337 54.8517 947.466 41.2815 954.095 34.8812C962.068 27.183 961.299 10.697 950.784 4.45511C940.27 -1.78682 926.212 6.15325 918.101 13.27Z" fill="#FF0000" fill-opacity="0.81" stroke="#FF0000" stroke-width="3" stroke-linecap="round" stroke-linejoin="round"/>
<path d="M911.854 70.5232L917.801 59.9419L925.373 68.2646L911.854 70.5232Z" fill="#FF0000" fill-opacity="0.8" stroke="#FF0000"/>
<path d="M921.782 112.568C921.782 112.568 927.386 89.0196 921.499 88.0194C915.612 87.0192 918.521 61.3495 918.521 61.3495" stroke="#FF0000"/>
<path fill-rule="evenodd" clip-rule="evenodd" d="M43.1009 13.27C34.8272 6.3425 21.1124 4.33048 10.9219 10.8792C0.731409 17.428 -0.589554 28.1955 7.55926 35.7075C14.3345 41.9529 34.7715 55.0546 41.4691 59.2942C42.2182 59.7685 42.5929 60.0056 43.0279 60.0954C43.4072 60.1737 43.8215 60.1689 44.1994 60.0818C44.6322 59.9821 45.0009 59.7363 45.7393 59.2449C52.3371 54.8517 72.4658 41.2815 79.0952 34.8812C87.0682 27.183 86.299 10.697 75.7843 4.45511C65.2696 -1.78682 51.2123 6.15325 43.1009 13.27Z" fill="#E5ED09" fill-opacity="0.81" stroke="#E5ED09" stroke-width="3" stroke-linecap="round" stroke-linejoin="round"/>
<path d="M36.8542 70.5232L42.8014 59.9419L50.3732 68.2646L36.8542 70.5232Z" fill="#E5ED09" fill-opacity="0.8" stroke="#E5ED09"/>
<path d="M46.7824 112.568C46.7824 112.568 52.3856 89.0195 46.4988 88.0194C40.612 87.0192 43.5206 61.3494 43.5206 61.3494" stroke="#E5ED09"/>
<path fill-rule="evenodd" clip-rule="evenodd" d="M168.101 13.27C159.827 6.3425 146.112 4.33048 135.922 10.8792C125.731 17.428 124.41 28.1955 132.559 35.7075C139.334 41.9529 159.772 55.0546 166.469 59.2942C167.218 59.7685 167.593 60.0056 168.028 60.0954C168.407 60.1737 168.822 60.1689 169.199 60.0818C169.632 59.9821 170.001 59.7363 170.739 59.2449C177.337 54.8517 197.466 41.2815 204.095 34.8812C212.068 27.183 211.299 10.697 200.784 4.45511C190.27 -1.78682 176.212 6.15325 168.101 13.27Z" fill="#2600FF" fill-opacity="0.81" stroke="#2600FF" stroke-width="3" stroke-linecap="round" stroke-linejoin="round"/>
<path d="M161.854 70.5232L167.802 59.9419L175.373 68.2646L161.854 70.5232Z" fill="#2600FF" fill-opacity="0.8" stroke="#2600FF"/>
<path d="M171.782 112.568C171.782 112.568 177.386 89.0195 171.499 88.0194C165.612 87.0192 168.521 61.3494 168.521 61.3494" stroke="#2600FF"/>
</svg>
